<?xml version="1.0" standalone="no"?><!DOCTYPE svg PUBLIC "-//W3C//DTD SVG 1.1//EN" "http://www.w3.org/Graphics/SVG/1.1/DTD/svg11.dtd"><svg t="1567841811692" class="icon" viewBox="0 0 1024 1024" version="1.1" xmlns="http://www.w3.org/2000/svg" p-id="1272" xmlns:xlink="http://www.w3.org/1999/xlink" width="200" height="200"><defs><style type="text/css"></style></defs><path d="M510.401 960.053c-228.61 0-414.055-174.255-414.055-388.476 0-110.309 51.157-215.82 139.084-289.36 12.79-9.591 25.579-19.183 38.368-30.374C331.35 207.08 398.494 157.52 460.843 18.437 467.237 2.45 486.42-3.944 502.408 2.45 535.98 15.24 651.084 69.595 695.847 184.7c17.585 44.762 22.381 94.321 14.388 145.479 12.79-14.388 22.381-28.776 31.973-41.566 4.796-7.993 12.79-12.79 22.382-14.388 9.592-1.598 17.585 1.599 25.578 6.395 87.927 73.539 139.085 179.05 139.085 289.359 0 163.064-110.309 310.142-274.971 364.497-9.592 3.197-19.184 1.598-27.178-3.198-75.137-46.361-121.499-110.308-150.275-166.261 3.198 75.137 41.566 121.498 57.552 137.485 9.592 9.592 12.79 22.382 6.395 35.17-4.796 14.389-17.585 22.382-30.375 22.382z m-6.394-885.662C438.46 205.48 368.12 259.836 310.567 303c-12.789 9.591-23.98 19.183-35.17 28.775-73.539 60.75-115.104 148.677-115.104 239.8 0 156.67 121.499 289.36 282.964 318.136-28.776-54.355-51.157-142.282-6.394-257.386 4.796-12.79 19.184-22.381 33.572-20.783 14.388 1.599 25.578 12.79 28.776 27.178 0 1.598 25.578 150.275 148.676 233.405 129.492-51.157 215.82-169.458 215.82-300.55 0-79.933-31.973-158.268-91.124-217.418-23.98 30.374-59.15 65.545-108.71 95.92-12.789 6.394-27.177 4.796-38.367-3.198-9.593-9.592-12.79-23.98-7.994-36.769 35.17-73.539 39.967-140.683 17.586-199.834-23.98-62.348-78.335-108.71-131.091-135.886z" fill="" p-id="1273"></path></svg>